<svg xmlns="http://www.w3.org/2000/svg" xmlns:xlink="http://www.w3.org/1999/xlink" width="2557" height="2557"><defs><path id="a" d="M74.5 1090c419.46 0 759.5 340.04 759.5 759.5S493.96 2609 74.5 2609-685 2268.96-685 1849.5-344.96 1090 74.5 1090z"/><path id="b" d="M78 850c553.39 0 1002 448.61 1002 1002 0 553.389-448.61 1002-1002 1002S-924 2405.388-924 1852c0-553.39 448.61-1002 1002-1002z"/><path id="c" d="M82.5 593C788.596 593 1361 1165.404 1361 1871.5S788.596 3150 82.5 3150-1196 2577.596-1196 1871.5-623.596 593 82.5 593z"/><path id="d" d="M-1 1263c277.247 0 502 224.753 502 502S276.247 2267-1 2267s-502-224.753-502-502 224.753-502 502-502z"/><clipPath id="e"><use fill="#fff" xlink:href="#a"/></clipPath><clipPath id="f"><use fill="#fff" xlink:href="#b"/></clipPath><clipPath id="g"><use fill="#fff" xlink:href="#c"/></clipPath><clipPath id="h"><use fill="#fff" xlink:href="#d"/></clipPath></defs><use fill="#fff" fill-opacity="0" stroke="#000" stroke-miterlimit="50" stroke-width="2" clip-path="url(&quot;#e&quot;)" xlink:href="#a" opacity=".2" transform="translate(1196 -593)"/><use fill="#fff" fill-opacity="0" stroke="#000" stroke-miterlimit="50" stroke-width="2" clip-path="url(&quot;#f&quot;)" xlink:href="#b" opacity=".2" transform="translate(1196 -593)"/><use fill="#fff" fill-opacity="0" stroke="#000" stroke-miterlimit="50" stroke-width="2" clip-path="url(&quot;#g&quot;)" xlink:href="#c" opacity=".2" transform="translate(1196 -593)"/><use fill="#fff" fill-opacity="0" stroke="#000" stroke-miterlimit="50" stroke-width="2" clip-path="url(&quot;#h&quot;)" xlink:href="#d" opacity=".2" transform="translate(1196 -593)"/></svg>