<svg xmlns="http://www.w3.org/2000/svg" xmlns:xlink="http://www.w3.org/1999/xlink" width="2557" height="2557" viewBox="0 0 2557 2557"><defs><path id="vw9la" d="M74.5 1090c419.46 0 759.5 340.04 759.5 759.5S493.96 2609 74.5 2609-685 2268.96-685 1849.5-344.96 1090 74.5 1090z"/><path id="vw9lb" d="M78 850c553.39 0 1002 448.61 1002 1002 0 553.389-448.61 1002-1002 1002S-924 2405.388-924 1852c0-553.39 448.61-1002 1002-1002z"/><path id="vw9lc" d="M82.5 593C788.596 593 1361 1165.404 1361 1871.5S788.596 3150 82.5 3150-1196 2577.596-1196 1871.5-623.596 593 82.5 593z"/><path id="vw9ld" d="M-1 1263c277.247 0 502 224.753 502 502S276.247 2267-1 2267s-502-224.753-502-502 224.753-502 502-502z"/><clipPath id="vw9le"><use fill="#fff" xlink:href="#vw9la"/></clipPath><clipPath id="vw9lf"><use fill="#fff" xlink:href="#vw9lb"/></clipPath><clipPath id="vw9lg"><use fill="#fff" xlink:href="#vw9lc"/></clipPath><clipPath id="vw9lh"><use fill="#fff" xlink:href="#vw9ld"/></clipPath></defs><g><g transform="translate(1196 -593)"><g opacity=".2"><use fill="#fff" fill-opacity="0" stroke="#000" stroke-miterlimit="50" stroke-width="2" clip-path="url(&quot;#vw9le&quot;)" xlink:href="#vw9la"/></g><g opacity=".2"><use fill="#fff" fill-opacity="0" stroke="#000" stroke-miterlimit="50" stroke-width="2" clip-path="url(&quot;#vw9lf&quot;)" xlink:href="#vw9lb"/></g><g opacity=".2"><use fill="#fff" fill-opacity="0" stroke="#000" stroke-miterlimit="50" stroke-width="2" clip-path="url(&quot;#vw9lg&quot;)" xlink:href="#vw9lc"/></g><g opacity=".2"><use fill="#fff" fill-opacity="0" stroke="#000" stroke-miterlimit="50" stroke-width="2" clip-path="url(&quot;#vw9lh&quot;)" xlink:href="#vw9ld"/></g></g></g></svg>